<?xml version="1.0" encoding="UTF-8"?>
<svg width="752pt" height="752pt" version="1.1" viewBox="0 0 752 752" xmlns="http://www.w3.org/2000/svg">
 <path d="m420.23 377.47h-3.5977l-0.003907-22.496c0-1.8438-0.73047-3.6172-2.0391-4.9219-1.3047-1.3047-3.0742-2.0391-4.9219-2.0391h-64.926c1.8594-6.457 0.73047-13.406-3.0781-18.941l-0.56641-0.85156h-0.003906c-1.9023-2.8711-1.9023-6.6016 0-9.4727l0.71094-1.0898c2.1992-3.2812 1.3164-7.7227-1.9648-9.9219-3.2812-2.1953-7.7266-1.3164-9.9219 1.9648l-0.71094 1.0898c-2.418 3.7422-3.668 8.1133-3.5898 12.566 0.074218 4.4531 1.4727 8.7852 4.0156 12.438l0.56641 0.85156 0.003906 0.003907c1.9023 2.8672 1.9023 6.5977 0 9.4688l-1.0898 1.7031-18.469 0.003907c-3.8477 0-6.9609 3.1172-6.9609 6.9609v85.812c0 9.0703 3.6016 17.766 10.012 24.18 6.4141 6.4102 15.109 10.012 24.18 10.012h44.66-0.003906c9.0703 0 17.766-3.6016 24.18-10.012 6.4141-6.4141 10.016-15.109 10.016-24.18v-6.9609h3.5977c10.035 0 19.305-5.3516 24.32-14.043 5.0195-8.6875 5.0195-19.395 0-28.082-5.0156-8.6914-14.285-14.043-24.32-14.043zm-17.523 63.129c0 5.375-2.1367 10.531-5.9375 14.332-3.8008 3.8008-8.957 5.9375-14.332 5.9375h-44.609c-5.3789 0-10.531-2.1367-14.332-5.9375-3.8047-3.8008-5.9375-8.957-5.9375-14.332v-78.805h85.246zm17.523-20.836h-3.5977v-28.414h3.5977v-0.003906c7.8477 0 14.207 6.3633 14.207 14.211 0 7.8438-6.3594 14.207-14.207 14.207zm-66.301-113.19c-2.543-3.6562-3.9414-7.9844-4.0195-12.438-0.074218-4.4531 1.1758-8.8281 3.5938-12.566l0.71094-1.0898h-0.003906c2.1484-3.0547 6.3242-3.8711 9.4648-1.8477 3.1367 2.0195 4.125 6.1562 2.2344 9.3789l-0.71094 1.0898v-0.003906c-1.9023 2.8711-1.9023 6.6016 0 9.4727l0.56641 0.85156h0.003907c2.5391 3.6484 3.9414 7.9648 4.0234 12.41 0.085937 4.4414-1.1523 8.8086-3.5508 12.551l-1.1836 1.8477v-0.003907c-2.0664 3.2461-6.3711 4.1992-9.6133 2.1328-3.2461-2.0664-4.1992-6.3711-2.1328-9.6133l1.1836-1.8477c1.9023-2.8711 1.9023-6.6016 0-9.4727zm24.484 12.219c-2.543-3.6562-3.9414-7.9844-4.0195-12.438-0.074219-4.4531 1.1758-8.8281 3.5938-12.566l0.71094-1.0898h-0.003906c2.082-3.2695 6.418-4.2344 9.6875-2.1562 3.2695 2.082 4.2344 6.418 2.1523 9.6836l-0.71094 1.0898c-1.9023 2.8711-1.9023 6.6016 0 9.4727l0.56641 0.85156h0.003907c2.5391 3.6484 3.9414 7.9648 4.0273 12.406 0.082031 4.4453-1.1523 8.8125-3.5547 12.551l-1.1836 1.8477c-2.0664 3.2461-6.3711 4.1992-9.6133 2.1328-3.2422-2.0664-4.1992-6.3711-2.1328-9.6133l1.1836-1.8477h0.003906c1.9023-2.8711 1.9023-6.6016 0-9.4727z"/>
</svg>
