<?xml version="1.0" encoding="UTF-8"?>
<svg width="752pt" height="752pt" version="1.1" viewBox="0 0 752 752" xmlns="http://www.w3.org/2000/svg">
 <path d="m234.91 306.94h22.691c5.4492 0 9.8633-4.418 9.8633-9.8672 0-5.4492-4.4141-9.8672-9.8633-9.8672h-26.145c-6.2227 0-11.781 3.8945-13.91 9.7422l-38.242 105.18c-0.10156 0.26562-0.19141 0.53906-0.26953 0.81641-0.52344 1.8672-0.47266 3.7812 0.058594 5.5312 0.1875 0.61328 0.42969 1.1992 0.72656 1.7539 0.91797 1.7305 2.3477 3.1914 4.1719 4.1367 0.82422 0.42969 1.7148 0.74219 2.6523 0.92578 0.70703 0.13672 1.418 0.19531 2.1211 0.17969h19.668c2.5352 38.57 34.625 69.066 73.836 69.066 39.207 0 71.297-30.496 73.832-69.066h39.789c2.5391 38.57 34.625 69.066 73.836 69.066 39.211 0 71.297-30.496 73.836-69.066h19.668c0.70312 0.015625 1.4102-0.042969 2.1211-0.17969 0.92969-0.18359 1.8164-0.49219 2.6328-0.91406 1.8242-0.94141 3.2578-2.3984 4.1758-4.1211 0.29688-0.55859 0.54688-1.1445 0.73438-1.7578 0.53906-1.7617 0.59375-3.6797 0.0625-5.5586-0.074219-0.27734-0.16406-0.54688-0.26563-0.8125l-38.246-105.18c-2.125-5.8477-7.6836-9.7422-13.906-9.7422h-26.145c-5.4492 0-9.8672 4.418-9.8672 9.8672 0 5.4492 4.418 9.8672 9.8672 9.8672h22.688l32.293 88.797h-5.6523c-0.49219 0-0.98047 0.035156-1.457 0.10547-6.8164-33.828-36.703-59.305-72.539-59.305-35.836 0-65.723 25.477-72.539 59.305-0.47656-0.070313-0.96094-0.10547-1.457-0.10547h-39.465c-0.49609 0-0.98438 0.035156-1.457 0.10547-6.8164-33.828-36.703-59.305-72.539-59.305-35.84 0-65.727 25.477-72.539 59.305-0.47656-0.070313-0.96484-0.10547-1.4609-0.10547h-5.6484zm47.359 157.86c29.969 0 54.262-24.293 54.262-54.262 0-29.973-24.293-54.266-54.262-54.266-29.973 0-54.266 24.293-54.266 54.266 0 29.969 24.293 54.262 54.266 54.262zm187.46 0c29.969 0 54.266-24.293 54.266-54.262 0-29.973-24.297-54.266-54.266-54.266s-54.266 24.293-54.266 54.266c0 29.969 24.297 54.262 54.266 54.262z" fill-rule="evenodd"/>
</svg>
