<?xml version="1.0" encoding="UTF-8"?>
<svg width="752pt" height="752pt" version="1.1" viewBox="0 0 752 752" xmlns="http://www.w3.org/2000/svg">
 <path d="m567.8 341.1c0.11719 11.688-5.6719 22.641-15.391 29.125-0.83203 0.60938-1.7031 1.1602-2.6055 1.6602l-21.074 12.078-27.469 15.629-23.68 13.496-72.223 41.203 0.003906-0.003907c-18.188 10.418-40.535 10.418-58.723 0l-72.223-41.203-23.68-13.496-48.543-27.703c-7.3125-4.1172-12.922-10.703-15.82-18.582-2.8984-7.875-2.8984-16.527 0-24.402 2.8984-7.8789 8.5078-14.465 15.82-18.582l144.44-82.402h0.003906c18.25-10.184 40.473-10.184 58.723 0l144.44 82.402c5.5078 3.0195 10.09 7.4805 13.258 12.902 3.1719 5.4219 4.8086 11.602 4.7383 17.879zm-191.8 144.68c-14.441-0.015625-28.637-3.7695-41.199-10.891l-84.062-48.07v22.969c-0.089843 18.426 8.4023 35.844 22.969 47.121 29.324 22.57 65.289 34.809 102.29 34.809s72.969-12.238 102.29-34.809c14.57-11.277 23.062-28.695 22.969-47.121v-22.969l-84.062 48.07h0.003906c-12.566 7.1211-26.758 10.875-41.203 10.895zm152.73 8.9961v0.003906c-0.03125 3.1484 1.207 6.1797 3.4336 8.4062 2.2266 2.2266 5.2578 3.4648 8.4062 3.4336 6.5312-0.019532 11.82-5.3086 11.84-11.84v-97.32l-23.68 13.734z"/>
</svg>
